solid basic_block
  facet normal 0.00000000 0.00000000 -1.00000000
    outer loop
      vertex -15.000000 -9.000000 0.000000
      vertex -15.000000 9.000000 0.000000
      vertex 15.000000 9.000000 0.000000
    endloop
  endfacet
  facet normal 0.00000000 0.00000000 -1.00000000
    outer loop
      vertex -15.000000 -9.000000 0.000000
      vertex 15.000000 9.000000 0.000000
      vertex 15.000000 -9.000000 0.000000
    endloop
  endfacet
  facet normal 0.00000000 0.00000000 1.00000000
    outer loop
      vertex -15.000000 -9.000000 4.000000
      vertex 15.000000 -9.000000 4.000000
      vertex 15.000000 9.000000 4.000000
    endloop
  endfacet
  facet normal 0.00000000 0.00000000 1.00000000
    outer loop
      vertex -15.000000 -9.000000 4.000000
      vertex 15.000000 9.000000 4.000000
      vertex -15.000000 9.000000 4.000000
    endloop
  endfacet
  facet normal 0.00000000 -1.00000000 0.00000000
    outer loop
      vertex -15.000000 -9.000000 0.000000
      vertex 15.000000 -9.000000 0.000000
      vertex 15.000000 -9.000000 4.000000
    endloop
  endfacet
  facet normal 0.00000000 -1.00000000 0.00000000
    outer loop
      vertex -15.000000 -9.000000 0.000000
      vertex 15.000000 -9.000000 4.000000
      vertex -15.000000 -9.000000 4.000000
    endloop
  endfacet
  facet normal 0.00000000 1.00000000 0.00000000
    outer loop
      vertex -15.000000 9.000000 0.000000
      vertex -15.000000 9.000000 4.000000
      vertex 15.000000 9.000000 4.000000
    endloop
  endfacet
  facet normal 0.00000000 1.00000000 0.00000000
    outer loop
      vertex -15.000000 9.000000 0.000000
      vertex 15.000000 9.000000 4.000000
      vertex 15.000000 9.000000 0.000000
    endloop
  endfacet
  facet normal -1.00000000 0.00000000 0.00000000
    outer loop
      vertex -15.000000 -9.000000 0.000000
      vertex -15.000000 -9.000000 4.000000
      vertex -15.000000 9.000000 4.000000
    endloop
  endfacet
  facet normal -1.00000000 0.00000000 0.00000000
    outer loop
      vertex -15.000000 -9.000000 0.000000
      vertex -15.000000 9.000000 4.000000
      vertex -15.000000 9.000000 0.000000
    endloop
  endfacet
  facet normal 1.00000000 0.00000000 0.00000000
    outer loop
      vertex 15.000000 -9.000000 0.000000
      vertex 15.000000 9.000000 0.000000
      vertex 15.000000 9.000000 4.000000
    endloop
  endfacet
  facet normal 1.00000000 0.00000000 0.00000000
    outer loop
      vertex 15.000000 -9.000000 0.000000
      vertex 15.000000 9.000000 4.000000
      vertex 15.000000 -9.000000 4.000000
    endloop
  endfacet
  facet normal 0.00000000 0.00000000 -1.00000000
    outer loop
      vertex -12.000000 -9.000000 4.000000
      vertex -12.000000 9.000000 4.000000
      vertex -4.000000 9.000000 4.000000
    endloop
  endfacet
  facet normal 0.00000000 0.00000000 -1.00000000
    outer loop
      vertex -12.000000 -9.000000 4.000000
      vertex -4.000000 9.000000 4.000000
      vertex -4.000000 -9.000000 4.000000
    endloop
  endfacet
  facet normal 0.00000000 0.00000000 1.00000000
    outer loop
      vertex -12.000000 -9.000000 14.000000
      vertex -4.000000 -9.000000 14.000000
      vertex -4.000000 9.000000 14.000000
    endloop
  endfacet
  facet normal 0.00000000 0.00000000 1.00000000
    outer loop
      vertex -12.000000 -9.000000 14.000000
      vertex -4.000000 9.000000 14.000000
      vertex -12.000000 9.000000 14.000000
    endloop
  endfacet
  facet normal 0.00000000 -1.00000000 0.00000000
    outer loop
      vertex -12.000000 -9.000000 4.000000
      vertex -4.000000 -9.000000 4.000000
      vertex -4.000000 -9.000000 14.000000
    endloop
  endfacet
  facet normal 0.00000000 -1.00000000 0.00000000
    outer loop
      vertex -12.000000 -9.000000 4.000000
      vertex -4.000000 -9.000000 14.000000
      vertex -12.000000 -9.000000 14.000000
    endloop
  endfacet
  facet normal 0.00000000 1.00000000 0.00000000
    outer loop
      vertex -12.000000 9.000000 4.000000
      vertex -12.000000 9.000000 14.000000
      vertex -4.000000 9.000000 14.000000
    endloop
  endfacet
  facet normal 0.00000000 1.00000000 0.00000000
    outer loop
      vertex -12.000000 9.000000 4.000000
      vertex -4.000000 9.000000 14.000000
      vertex -4.000000 9.000000 4.000000
    endloop
  endfacet
  facet normal -1.00000000 0.00000000 0.00000000
    outer loop
      vertex -12.000000 -9.000000 4.000000
      vertex -12.000000 -9.000000 14.000000
      vertex -12.000000 9.000000 14.000000
    endloop
  endfacet
  facet normal -1.00000000 0.00000000 0.00000000
    outer loop
      vertex -12.000000 -9.000000 4.000000
      vertex -12.000000 9.000000 14.000000
      vertex -12.000000 9.000000 4.000000
    endloop
  endfacet
  facet normal 1.00000000 0.00000000 0.00000000
    outer loop
      vertex -4.000000 -9.000000 4.000000
      vertex -4.000000 9.000000 4.000000
      vertex -4.000000 9.000000 14.000000
    endloop
  endfacet
  facet normal 1.00000000 0.00000000 0.00000000
    outer loop
      vertex -4.000000 -9.000000 4.000000
      vertex -4.000000 9.000000 14.000000
      vertex -4.000000 -9.000000 14.000000
    endloop
  endfacet
  facet normal 0.00000000 0.00000000 -1.00000000
    outer loop
      vertex 4.000000 -9.000000 4.000000
      vertex 4.000000 9.000000 4.000000
      vertex 12.000000 9.000000 4.000000
    endloop
  endfacet
  facet normal 0.00000000 0.00000000 -1.00000000
    outer loop
      vertex 4.000000 -9.000000 4.000000
      vertex 12.000000 9.000000 4.000000
      vertex 12.000000 -9.000000 4.000000
    endloop
  endfacet
  facet normal 0.00000000 0.00000000 1.00000000
    outer loop
      vertex 4.000000 -9.000000 14.000000
      vertex 12.000000 -9.000000 14.000000
      vertex 12.000000 9.000000 14.000000
    endloop
  endfacet
  facet normal 0.00000000 0.00000000 1.00000000
    outer loop
      vertex 4.000000 -9.000000 14.000000
      vertex 12.000000 9.000000 14.000000
      vertex 4.000000 9.000000 14.000000
    endloop
  endfacet
  facet normal 0.00000000 -1.00000000 0.00000000
    outer loop
      vertex 4.000000 -9.000000 4.000000
      vertex 12.000000 -9.000000 4.000000
      vertex 12.000000 -9.000000 14.000000
    endloop
  endfacet
  facet normal 0.00000000 -1.00000000 0.00000000
    outer loop
      vertex 4.000000 -9.000000 4.000000
      vertex 12.000000 -9.000000 14.000000
      vertex 4.000000 -9.000000 14.000000
    endloop
  endfacet
  facet normal 0.00000000 1.00000000 0.00000000
    outer loop
      vertex 4.000000 9.000000 4.000000
      vertex 4.000000 9.000000 14.000000
      vertex 12.000000 9.000000 14.000000
    endloop
  endfacet
  facet normal 0.00000000 1.00000000 0.00000000
    outer loop
      vertex 4.000000 9.000000 4.000000
      vertex 12.000000 9.000000 14.000000
      vertex 12.000000 9.000000 4.000000
    endloop
  endfacet
  facet normal -1.00000000 0.00000000 0.00000000
    outer loop
      vertex 4.000000 -9.000000 4.000000
      vertex 4.000000 -9.000000 14.000000
      vertex 4.000000 9.000000 14.000000
    endloop
  endfacet
  facet normal -1.00000000 0.00000000 0.00000000
    outer loop
      vertex 4.000000 -9.000000 4.000000
      vertex 4.000000 9.000000 14.000000
      vertex 4.000000 9.000000 4.000000
    endloop
  endfacet
  facet normal 1.00000000 0.00000000 0.00000000
    outer loop
      vertex 12.000000 -9.000000 4.000000
      vertex 12.000000 9.000000 4.000000
      vertex 12.000000 9.000000 14.000000
    endloop
  endfacet
  facet normal 1.00000000 0.00000000 0.00000000
    outer loop
      vertex 12.000000 -9.000000 4.000000
      vertex 12.000000 9.000000 14.000000
      vertex 12.000000 -9.000000 14.000000
    endloop
  endfacet
endsolid basic_block
