solid multi_A_base_plate
  facet normal 0.00000000 0.00000000 -1.00000000
    outer loop
      vertex -18.000000 -12.000000 0.000000
      vertex -18.000000 12.000000 0.000000
      vertex 18.000000 12.000000 0.000000
    endloop
  endfacet
  facet normal 0.00000000 0.00000000 -1.00000000
    outer loop
      vertex -18.000000 -12.000000 0.000000
      vertex 18.000000 12.000000 0.000000
      vertex 18.000000 -12.000000 0.000000
    endloop
  endfacet
  facet normal 0.00000000 0.00000000 1.00000000
    outer loop
      vertex -18.000000 -12.000000 5.000000
      vertex 18.000000 -12.000000 5.000000
      vertex 18.000000 12.000000 5.000000
    endloop
  endfacet
  facet normal 0.00000000 0.00000000 1.00000000
    outer loop
      vertex -18.000000 -12.000000 5.000000
      vertex 18.000000 12.000000 5.000000
      vertex -18.000000 12.000000 5.000000
    endloop
  endfacet
  facet normal 0.00000000 -1.00000000 0.00000000
    outer loop
      vertex -18.000000 -12.000000 0.000000
      vertex 18.000000 -12.000000 0.000000
      vertex 18.000000 -12.000000 5.000000
    endloop
  endfacet
  facet normal 0.00000000 -1.00000000 0.00000000
    outer loop
      vertex -18.000000 -12.000000 0.000000
      vertex 18.000000 -12.000000 5.000000
      vertex -18.000000 -12.000000 5.000000
    endloop
  endfacet
  facet normal 0.00000000 1.00000000 0.00000000
    outer loop
      vertex -18.000000 12.000000 0.000000
      vertex -18.000000 12.000000 5.000000
      vertex 18.000000 12.000000 5.000000
    endloop
  endfacet
  facet normal 0.00000000 1.00000000 0.00000000
    outer loop
      vertex -18.000000 12.000000 0.000000
      vertex 18.000000 12.000000 5.000000
      vertex 18.000000 12.000000 0.000000
    endloop
  endfacet
  facet normal -1.00000000 0.00000000 0.00000000
    outer loop
      vertex -18.000000 -12.000000 0.000000
      vertex -18.000000 -12.000000 5.000000
      vertex -18.000000 12.000000 5.000000
    endloop
  endfacet
  facet normal -1.00000000 0.00000000 0.00000000
    outer loop
      vertex -18.000000 -12.000000 0.000000
      vertex -18.000000 12.000000 5.000000
      vertex -18.000000 12.000000 0.000000
    endloop
  endfacet
  facet normal 1.00000000 0.00000000 0.00000000
    outer loop
      vertex 18.000000 -12.000000 0.000000
      vertex 18.000000 12.000000 0.000000
      vertex 18.000000 12.000000 5.000000
    endloop
  endfacet
  facet normal 1.00000000 0.00000000 0.00000000
    outer loop
      vertex 18.000000 -12.000000 0.000000
      vertex 18.000000 12.000000 5.000000
      vertex 18.000000 -12.000000 5.000000
    endloop
  endfacet
endsolid multi_A_base_plate
